<?xml version="1.0" standalone="no"?>
<!DOCTYPE svg PUBLIC "-//W3C//DTD SVG 20010904//EN"
 "http://www.w3.org/TR/2001/REC-SVG-20010904/DTD/svg10.dtd">
<svg version="1.0" xmlns="http://www.w3.org/2000/svg"
 width="360.000000pt" height="360.000000pt" viewBox="0 0 360.000000 360.000000"
 preserveAspectRatio="xMidYMid meet">

<g transform="translate(0.000000,360.000000) scale(0.100000,-0.100000)"
fill="#000000" stroke="none">
<path d="M2177 2818 c-71 -87 -201 -277 -269 -390 -117 -199 -213 -423 -248
-580 -7 -32 -18 -58 -25 -58 -13 0 -156 48 -162 54 -2 2 23 56 57 120 34 64
60 116 57 116 -12 0 -233 -298 -225 -304 1 -2 84 -30 183 -64 99 -33 187 -63
196 -67 13 -5 17 6 22 72 20 250 214 760 400 1056 31 48 54 87 52 87 -2 0 -19
-19 -38 -42z"/>
<path d="M1371 1670 c-39 -68 -119 -154 -187 -200 -30 -21 -43 -37 -40 -47 34
-88 83 -361 93 -515 l6 -113 73 225 c41 124 74 229 74 233 0 5 -9 20 -20 34
-38 49 -19 121 37 140 63 22 123 -24 123 -92 0 -33 -50 -85 -82 -85 -21 0 -28
-17 -95 -227 -40 -125 -71 -228 -70 -230 2 -1 26 28 54 65 57 75 247 266 336
338 31 25 57 52 57 58 0 6 -10 40 -22 76 -17 52 -22 90 -22 188 l-1 123 -120
38 c-66 21 -129 41 -140 44 -16 5 -26 -5 -54 -53z"/>
<path d="M2033 1009 c-132 -10 -298 -41 -348 -65 -91 -43 -10 -83 313 -155
193 -42 230 -55 216 -69 -41 -41 -727 -63 -1019 -33 -33 3 -57 3 -54 -1 17
-19 312 -39 579 -39 339 -1 546 19 596 59 18 14 18 15 -3 33 -27 22 -126 50
-345 96 -184 38 -240 55 -245 72 -9 28 204 65 477 84 91 6 190 14 220 19 77
11 -240 10 -387 -1z"/>
</g>
</svg>
